<?xml version="1.0" encoding="utf-8"?>
<!-- Generator: Adobe Illustrator 18.1.1, SVG Export Plug-In . SVG Version: 6.00 Build 0)  -->
<!DOCTYPE svg PUBLIC "-//W3C//DTD SVG 1.1//EN" "http://www.w3.org/Graphics/SVG/1.1/DTD/svg11.dtd">
<svg version="1.1" id="Layer_1" xmlns="http://www.w3.org/2000/svg" xmlns:xlink="http://www.w3.org/1999/xlink" x="0px" y="0px"
	 viewBox="0 0 412 330" enable-background="new 0 0 412 330" xml:space="preserve">
<path fill="#FFFFFF" d="M110.9,162.9h41.8V330h62.7V162.9H278l14.6-62.6h-77.2c0,0-6.2-22.9,4.3-31.3c6.2-4.3,14.6-8.4,27.2-8.4
	c12.6,0,22.9,6.2,35.6,12.5l18.7-60.6C278.2,6.2,259.3,0,234.3,0c-22.9,0-37.7,4.1-52.3,10.5c-14.6,4.3-21,16.7-27.2,25.1
	c-4.3,10.5-8.4,18.8-8.4,39.7v25.1h-35.6L110.9,162.9L110.9,162.9z"/>
</svg>
