<?xml version="1.0" encoding="utf-8"?>
<!-- Generator: Adobe Illustrator 18.1.1, SVG Export Plug-In . SVG Version: 6.00 Build 0)  -->
<!DOCTYPE svg PUBLIC "-//W3C//DTD SVG 1.1//EN" "http://www.w3.org/Graphics/SVG/1.1/DTD/svg11.dtd">
<svg version="1.1" id="Layer_1" xmlns="http://www.w3.org/2000/svg" xmlns:xlink="http://www.w3.org/1999/xlink" x="0px" y="0px"
	 viewBox="0 0 412 330" enable-background="new 0 0 412 330" xml:space="preserve">
<path fill="#FFFFFF" d="M330.5,58.3v40.5h-20.2V58.3h-40.3v-18h40.5V0h20.2v40.5h40.5v20.1h-40.5v-2.3H330.5z M245.3,249.2
	c0,85.2-110.1,80.8-110.1,80.8s-94.4,2.3-94.4-65.2s107.8-65.2,114.5-65.2C153,184,144,186.1,144,179.4v-18c0,0-80.8,9-80.8-67.3
	s87.5-78.5,87.5-78.5h92.1c0,13.4-42.6,9-42.6,15.7c24.7,11.3,26.9,26.9,26.9,56.2c0,47.2-47.2,53.9-47.2,74.1
	C182.4,184,245.3,199.7,245.3,249.2z M182.4,76.2c-9-29.2-33.6-49.3-56.2-44.9c-22.5,6.7-33.6,35.9-24.7,67.4
	c9,29.2,33.6,49.3,56.2,44.9C180.1,136.8,191.4,107.7,182.4,76.2z M141.9,213.2c-38.2,2.3-67.3,26.9-65.2,51.6
	c2.3,26.9,33.6,44.9,71.8,42.6s67.3-26.9,65.2-51.6C211.5,228.9,180.1,210.9,141.9,213.2z"/>
</svg>
