<?xml version="1.0" encoding="utf-8"?>
<!-- Generator: Adobe Illustrator 18.1.1, SVG Export Plug-In . SVG Version: 6.00 Build 0)  -->
<!DOCTYPE svg PUBLIC "-//W3C//DTD SVG 1.1//EN" "http://www.w3.org/Graphics/SVG/1.1/DTD/svg11.dtd">
<svg version="1.1" id="Layer_1" xmlns="http://www.w3.org/2000/svg" xmlns:xlink="http://www.w3.org/1999/xlink" x="0px" y="0px"
	 viewBox="0 0 412 330" enable-background="new 0 0 412 330" xml:space="preserve">
<path fill="#FFFFFF" d="M343.7,330.1H68.5c-16.4,0-27.6-11-27.6-27.6v-275c0-16.4,11-27.6,27.6-27.6h275c16.4,0,27.6,11,27.6,27.6
	v275C371.1,319.1,360.1,330.1,343.7,330.1z M96.1,275.1h46.8V126.7H96.1V275.1z M120.9,55.1c-16.6,0-27.6,11-27.6,24.8
	s11,24.8,24.8,24.8l0,0c16.6,0,27.6-11,27.6-24.8C148.3,66.1,137.3,55.1,120.9,55.1z M313.3,189.9c0-46.8-22-66-55-66
	c-24.8,0-35.8,13.8-41.2,24.8v-22h-46.8c0,13.8,0,148.6,0,148.6h46.8v-82.4c0-5.6,0-8.2,2.8-11c2.8-8.2,11-19.2,24.8-19.2
	c16.4,0,24.8,13.8,24.8,33v79.4h46.6v-85.2H313.3z M217.1,148.7L217.1,148.7L217.1,148.7L217.1,148.7z"/>
</svg>
