<?xml version="1.0" encoding="utf-8"?>
<!-- Generator: Adobe Illustrator 18.1.1, SVG Export Plug-In . SVG Version: 6.00 Build 0)  -->
<!DOCTYPE svg PUBLIC "-//W3C//DTD SVG 1.1//EN" "http://www.w3.org/Graphics/SVG/1.1/DTD/svg11.dtd">
<svg version="1.1" id="Layer_1" xmlns="http://www.w3.org/2000/svg" xmlns:xlink="http://www.w3.org/1999/xlink" x="0px" y="0px"
	 viewBox="0 0 412 330" enable-background="new 0 0 412 330" xml:space="preserve">
<path fill="#FFFFFF" d="M401.2,39.5c-15.2,6.2-30.4,12.1-45.4,12.1c18.1-9,30.4-27.3,36.3-45.4c-15.2,9-33.2,15.2-51.5,21.1
	C325.4,9.4,304.3,0.1,280.1,0.1c-45.4,0-81.7,36.3-81.7,84.8c0,6.2,0,12.1,3.1,18.3C135,100.1,74.2,66.8,35.1,15.3
	c-6.2,12.1-12.1,27.3-12.1,42.3c0,30.4,12.1,54.6,36.3,69.6c-12.1,0-36.3-3.1-36.3-9l0,0c0,39.4,27.3,75.7,66.5,81.7
	c-6.2,3.1-12.1,3.1-21.1,3.1c-6.2,0-9,0-15.2-3.1c9,33.2,39.4,57.5,75.7,57.5c-27.3,21.1-63.6,36.3-99.9,36.3c-6.2,0-12.1,0-18.1,0
	c36.3,24.2,78.8,36.3,124.2,36.3c148.4,0,230.1-127.2,230.1-239.1c0-3.1,0-6.2,0-12.1C376.9,72.8,389.3,57.8,401.2,39.5z"/>
</svg>
