<?xml version="1.0" encoding="utf-8"?>
<!-- Generator: Adobe Illustrator 18.1.1, SVG Export Plug-In . SVG Version: 6.00 Build 0)  -->
<!DOCTYPE svg PUBLIC "-//W3C//DTD SVG 1.1//EN" "http://www.w3.org/Graphics/SVG/1.1/DTD/svg11.dtd">
<svg version="1.1" id="Layer_1" xmlns="http://www.w3.org/2000/svg" xmlns:xlink="http://www.w3.org/1999/xlink" x="0px" y="0px"
	 viewBox="0 0 412 330" enable-background="new 0 0 412 330" xml:space="preserve">
<path fill="#FFFFFF" d="M410,250.3c-2.6,31-31,59.4-62,62c-49,5.1-95.6,7.7-142,7.7s-93-2.6-142-5.3c-31-2.6-59.4-31-62-62
	c-2.6-59.4-2.6-116.3,0-173c2.6-31,31-59.4,62-62c49-5.1,95.6-7.7,142-7.7s93,2.6,142,5.3c31,2.6,59.4,31,62,62
	C412.7,136.6,412.7,193.4,410,250.3z M275.7,157.3l-124-67.1c-5.3-2.6-10.3-2.6-15.4-2.6c-5.3,2.6-7.7,7.7-7.7,10.3v134.3
	c0,5.3,2.6,7.7,7.7,10.3c2.6,0,5.3,0,7.7,0c2.6,0,5.3,0,7.7-2.6l124-67.3c5.3-2.6,5.3-5.3,5.3-7.7
	C283.4,162.4,281,157.3,275.7,157.3z"/>
</svg>
